PathFileType	4	(X/Y/Z)	 s06c0302.trc
DataRate	CameraRate	NumFrames	NumMarkers	Units	OrigDataRate	OrigDataStartFrame	OrigNumFrames
200	200	4	48	mm	200	1251	2000
Frame#	Time	racr			lacr			c7			jug			rlel			rdr			llel			ldr			s2			lic			ric			lasi			rasi			rpsi			lpsi			rgt			lgt			rth1			rth2			rth3			rth4			rlfc			rmfc			rsh1			rsh2			rsh3			rsh4			rlmal			rcal			rtoe			rmt5			lth1			lth2			lth4			lth3			llfc			lmfc			llmal			lcal			lmt5			lsh1			lsh2			lsh3			lsh4			ltoe			SBIKE			LBIKE			RBIKE			
		X1	Y1	Z1	X2	Y2	Z2	X3	Y3	Z3	X4	Y4	Z4	X5	Y5	Z5	X6	Y6	Z6	X7	Y7	Z7	X8	Y8	Z8	X9	Y9	Z9	X10	Y10	Z10	X11	Y11	Z11	X12	Y12	Z12	X13	Y13	Z13	X14	Y14	Z14	X15	Y15	Z15	X16	Y16	Z16	X17	Y17	Z17	X18	Y18	Z18	X19	Y19	Z19	X20	Y20	Z20	X21	Y21	Z21	X22	Y22	Z22	X23	Y23	Z23	X24	Y24	Z24	X25	Y25	Z25	X26	Y26	Z26	X27	Y27	Z27	X28	Y28	Z28	X29	Y29	Z29	X30	Y30	Z30	X31	Y31	Z31	X32	Y32	Z32	X33	Y33	Z33	X34	Y34	Z34	X35	Y35	Z35	X36	Y36	Z36	X37	Y37	Z37	X38	Y38	Z38	X39	Y39	Z39	X40	Y40	Z40	X41	Y41	Z41	X42	Y42	Z42	X43	Y43	Z43	X44	Y44	Z44	X45	Y45	Z45	X46	Y46	Z46	X47	Y47	Z47	X48	Y48	Z48	
1251	6.2550	747.790497	1229.251878	-78.638015	761.652545	1164.608626	-381.390506	783.018922	1269.872222	-234.597302	709.128662	1117.763699	-216.560788	602.714013	1073.211224	90.688665	721.364264	919.713492	-27.331150	536.695608	1040.640971	-485.014608	705.012396	934.412022	-400.792048	201.448765	1235.919382	-203.341176	332.404112	1147.844875	-378.071097	342.101328	1150.486994	-46.642139	343.112721	1098.111448	-338.696017	360.305659	1102.208443	-84.014768	240.350852	1252.155622	-165.065624	236.195012	1254.235588	-226.877150	303.173719	1074.749857	-10.656400	287.237912	1099.207478	-403.719419	367.761722	968.047448	-14.992128	425.363013	900.091391	-26.332886	442.059393	814.320624	-28.939468	451.446755	915.566260	-50.506925	442.066385	712.871291	-47.295419	418.388540	696.468537	-155.897038	343.333279	636.848640	-22.875472	281.206489	578.984847	-47.564180	198.667726	551.742865	-47.905791	295.052784	564.680915	-82.376689	124.131622	524.876287	-53.122147	74.759756	566.024839	-100.004448	145.925791	297.580312	-93.603350	96.895609	385.338848	-27.330544	307.190498	973.205835	-424.216762	358.601574	903.283326	-420.534166	392.471592	916.324344	-411.874621	367.683988	814.225507	-413.542058	384.637333	695.690119	-396.083731	396.270869	677.790455	-282.343286	272.785127	338.819078	-373.651245	199.050868	322.401388	-324.801810	382.015245	252.666271	-402.826013	353.132159	589.145978	-414.517532	348.607893	505.043367	-392.848551	302.113063	430.194396	-387.651007	377.769916	500.390176	-365.789698	468.694327	243.206406	-345.087540	-204.140210	867.792813	-203.270033	-52.111529	83.821247	-410.423741	-50.786315	80.004675	-13.547472	
1252	6.2600	747.022076	1229.399016	-77.339658	762.437457	1164.672431	-379.754835	782.141797	1270.707441	-232.838245	709.750908	1117.582072	-215.118123	601.764880	1072.522835	91.107265	721.235623	919.757091	-27.519695	537.967934	1041.413868	-485.344250	705.334705	934.146305	-400.574558	201.269640	1232.024290	-204.027666	333.549425	1144.099641	-378.455512	341.213209	1150.924879	-47.221626	344.588367	1094.808050	-338.931381	359.930500	1102.334736	-83.814192	239.938522	1250.338708	-167.606728	235.976528	1251.360108	-228.865774	302.395111	1075.282189	-10.141440	287.461066	1093.148927	-403.541552	371.012810	971.198467	-14.640445	430.433795	903.977293	-24.633583	448.263790	819.312420	-26.304617	456.604755	920.432381	-46.988793	450.671756	717.179711	-45.325877	427.807227	702.398378	-154.579093	351.866311	642.584406	-21.794518	288.831231	585.781318	-46.583991	205.819699	559.933354	-47.304527	302.400850	571.311017	-81.614710	130.616413	534.194564	-52.670175	81.266721	575.649516	-100.082828	150.971852	306.871363	-93.884964	102.326507	394.821866	-27.417130	306.116221	966.450491	-423.310072	356.138931	895.636955	-419.103290	390.182926	908.035686	-410.278207	363.508035	806.392808	-411.738361	379.725453	688.881680	-394.252062	388.226406	670.787100	-280.190038	269.175297	330.408262	-373.799781	195.587151	314.992814	-325.178085	377.687854	242.651139	-402.646403	348.821747	582.089551	-412.926360	344.774941	497.607663	-392.177384	298.596214	422.239606	-387.398220	373.598497	493.558503	-365.446400	464.109624	231.872529	-344.832264	-204.170302	867.781153	-203.451584	-52.089821	83.806626	-410.460111	-50.738113	80.050310	-13.587276	
1253	6.2650	745.553965	1229.316121	-76.499711	763.171697	1165.491761	-378.151777	781.331466	1271.725391	-230.897233	709.616121	1117.995659	-213.803069	600.748574	1071.638550	91.786520	721.376230	919.687912	-27.672097	539.391560	1042.625206	-485.641927	705.756276	934.022247	-400.278493	200.810033	1228.136133	-206.797310	334.928448	1140.383570	-378.861335	340.023588	1151.622437	-47.792955	346.225907	1091.407015	-338.866431	359.224442	1102.577143	-83.398272	239.270564	1248.141572	-170.346338	235.732651	1248.595287	-231.513667	301.400513	1076.755468	-9.600588	287.752737	1087.063019	-402.956568	373.677173	974.968799	-13.091312	434.489910	908.734649	-21.731653	454.611067	824.267886	-23.686565	461.560669	926.281711	-42.919319	459.563752	721.622989	-43.337762	437.627755	707.807536	-152.624596	360.832132	648.204488	-20.839609	296.858505	592.539847	-45.586144	213.454130	567.908102	-46.523147	310.231894	578.010450	-80.722346	137.557805	543.052282	-52.180139	88.628036	584.936617	-99.595798	156.577723	315.845542	-93.959384	108.312898	403.895268	-27.416883	305.011403	960.084718	-422.592254	353.884155	888.172312	-417.561343	387.960661	900.132299	-408.794329	359.195278	798.896579	-410.401047	374.641328	681.945770	-392.317186	380.103914	664.223943	-278.118701	264.945684	322.483940	-373.818606	191.584006	308.151727	-325.436756	372.726106	233.150085	-402.463989	344.137159	574.878996	-411.152354	340.451585	489.967451	-390.864114	294.724507	414.577212	-387.010140	368.466373	485.898616	-362.377493	458.876653	220.827038	-344.589697	-204.157415	867.789043	-203.590404	-52.067164	83.809493	-410.498402	-50.714012	80.072049	-13.590849	
1254	6.2700	744.787899	1229.815053	-74.542412	763.875596	1166.857900	-376.594936	780.524294	1272.757903	-229.097570	709.293283	1118.482631	-212.506714	599.198799	1070.443380	91.638677	721.649508	919.671972	-27.644320	540.740430	1044.087431	-485.629551	706.312802	933.984138	-399.878826	200.502442	1224.136143	-208.235308	336.448041	1136.743495	-379.360299	338.455527	1152.330446	-48.470682	347.985147	1088.058834	-338.695189	358.094689	1102.858291	-83.115033	238.493205	1245.900573	-172.817883	235.617616	1245.656793	-234.304076	300.846851	1078.876613	-9.271209	288.513384	1081.355859	-402.890120	376.316215	978.601660	-12.069333	438.277975	914.062820	-18.994403	460.785564	829.731976	-21.006136	465.748052	931.454928	-39.414474	468.776342	726.407166	-41.538736	447.827911	713.702176	-150.879004	369.827438	654.187698	-19.613824	305.271531	599.383652	-44.434226	221.585763	575.669568	-45.595183	318.628685	584.826574	-79.255328	144.996924	551.655501	-51.485320	96.331582	593.775789	-99.353446	162.840730	324.312444	-93.985181	114.893353	412.547120	-27.375484	304.071412	954.153522	-422.021658	351.484897	881.226089	-416.307475	385.721806	892.701647	-407.420474	355.334361	792.184628	-409.173596	369.180877	674.909485	-390.475426	372.121938	657.809845	-276.388312	260.303735	315.109823	-373.747966	187.249371	301.832027	-325.415979	367.294859	224.010198	-402.242532	339.154452	567.885030	-409.973208	335.855904	482.747801	-389.954450	290.438973	407.005261	-386.469617	363.314731	479.282150	-361.387856	453.156245	210.126026	-344.384185	-204.071174	867.830556	-203.634840	-52.033587	83.804989	-410.506528	-50.665255	80.094585	-13.602104	
